<svg xmlns="http://www.w3.org/2000/svg" viewBox="0 0 50 50">
<path d="M37.893,18.957c-2.551-2.552-6.502-2.754-8.818-0.437l-8.092,8.257l-2.702,2.662c-0.838,0.836-2.457,0.629-3.537-0.447 c-1.082-1.084-1.288-2.703-0.451-3.541l12.496-12.496l2.055,2.053V8.491h-6.519l1.832,1.83L11.658,22.817
	c-2.304,2.304-2.104,6.255,0.45,8.808c2.552,2.551,6.502,2.752,8.796,0.459l2.716-2.676l8.101-8.267
	c0.838-0.836,2.457-0.632,3.539,0.448c1.082,1.081,1.287,2.702,0.449,3.539L23.916,36.922l-1.931-1.93v3.861l-0.006,0.006
	l0.006,0.008v2.643h6.517l-1.953-1.953l11.795-11.795C40.646,25.46,40.445,21.508,37.893,18.957z"/>
</svg>
